<svg xmlns="http://www.w3.org/2000/svg" width="1262" height="831" viewBox="0 0 1262 831">
<g>
<path d="M 200.50 0.00 L 855.83 0.00 L 860.04 4.75 C866.39,11.90 894.10,43.71 906.00,57.49 C916.59,69.75 961.20,121.12 973.31,134.98 C976.90,139.09 979.62,142.80 979.36,143.23 C978.70,144.29 898.00,144.21 898.00,143.15 C898.00,142.68 901.59,138.45 905.98,133.76 L 913.97 125.22 L 901.23 110.31 C894.23,102.10 882.42,88.25 875.00,79.53 C867.58,70.80 858.12,59.80 854.00,55.08 C849.87,50.36 844.76,44.36 842.63,41.75 L 838.76 37.00 L 808.18 37.00 L 773.84 75.61 C754.95,96.85 739.37,114.57 739.20,115.01 C738.94,115.68 749.65,130.14 757.35,139.50 C758.70,141.15 759.60,142.84 759.35,143.25 C758.83,144.08 664.00,144.31 664.00,143.48 C664.00,143.19 668.99,137.11 675.10,129.97 L 686.20 116.99 L 682.93 113.24 C681.13,111.19 676.42,105.90 672.47,101.50 C668.52,97.10 657.73,84.95 648.49,74.50 C639.26,64.05 631.38,55.37 630.99,55.21 C630.59,55.05 623.14,63.38 614.42,73.71 C605.70,84.05 594.01,97.91 588.43,104.52 L 578.29 116.54 L 589.10 129.44 C595.05,136.53 599.68,142.71 599.40,143.16 C598.76,144.20 502.00,144.29 502.01,143.25 C502.01,142.84 507.18,136.79 513.51,129.80 C519.83,122.82 525.00,116.84 525.00,116.52 C525.00,116.19 514.99,104.60 502.75,90.77 C490.51,76.94 475.31,59.75 468.96,52.56 L 457.42 39.50 L 421.50 38.09 L 417.50 42.31 C415.30,44.62 407.82,53.27 400.88,61.51 C393.94,69.75 379.43,86.95 368.63,99.72 C357.83,112.49 349.01,123.29 349.03,123.72 C349.05,124.15 352.39,128.54 356.45,133.47 C360.52,138.41 363.62,142.80 363.36,143.22 C362.85,144.06 281.00,144.33 281.00,143.50 C281.00,143.22 294.98,126.46 312.08,106.25 C397.99,4.65 401.00,1.08 401.00,0.51 C401.00,0.23 310.77,0.00 200.50,0.00 ZM 615.00 334.00 C615.00,428.60 614.88,506.00 614.74,506.00 C614.60,506.00 599.98,491.49 582.25,473.75 L 550.01 441.50 L 549.76 358.00 L 549.50 274.50 L 522.25 274.23 L 495.00 273.97 L 495.00 329.48 C495.00,360.02 494.66,385.00 494.25,385.00 C493.83,385.00 443.32,334.83 382.00,273.50 L 270.50 162.00 L 491.69 162.00 L 492.34 178.66 C492.70,187.82 493.00,202.45 493.00,211.16 L 493.00 227.00 L 552.00 227.00 L 552.00 162.00 L 615.00 162.00 ZM 775.06 375.00 C702.88,446.77 643.42,505.65 642.91,505.83 C642.36,506.03 642.00,437.69 642.00,334.08 L 642.00 162.00 L 988.48 162.00 L 947.52 203.00 L 711.32 203.00 L 710.62 282.13 C710.24,325.65 710.12,361.45 710.36,361.69 C710.60,361.93 729.72,342.41 752.86,318.31 L 794.92 274.50 L 769.96 274.23 L 745.00 273.97 L 745.00 243.00 L 784.25 243.14 C805.84,243.22 842.13,243.55 864.90,243.89 L 906.29 244.50 ZM 751.02 609.50 L 750.50 707.50 L 739.95 707.78 C734.15,707.94 729.08,707.75 728.70,707.37 C728.31,706.98 728.00,679.89 728.00,647.17 L 728.00 587.68 L 761.25 588.33 C796.01,589.01 800.21,589.50 808.86,593.93 C814.84,596.98 821.34,603.93 824.64,610.78 C826.94,615.56 827.46,618.15 827.79,626.50 C828.12,634.97 827.85,637.39 826.01,642.28 C821.96,653.05 813.07,661.65 803.29,664.27 C800.92,664.90 799.09,665.73 799.24,666.10 C799.38,666.47 807.15,675.42 816.50,686.00 C825.85,696.58 833.65,705.86 833.82,706.62 C834.09,707.74 831.70,708.00 821.14,708.00 L 808.13 708.00 L 802.11 701.25 C798.80,697.54 787.15,684.15 776.23,671.50 L 756.38 648.50 L 774.44 647.93 C788.12,647.49 793.23,646.97 795.50,645.77 C807.54,639.42 809.45,622.45 799.11,613.75 C795.06,610.34 793.39,610.11 770.26,609.77 ZM 657.51 707.94 C649.69,710.34 635.59,711.32 627.00,710.07 C612.93,708.03 601.40,702.42 591.91,693.03 C568.28,669.62 570.40,622.17 596.09,599.70 C617.78,580.73 657.26,580.54 678.39,599.29 L 683.13 603.50 L 676.23 610.30 L 669.34 617.11 L 663.92 613.53 C644.37,600.60 617.47,604.66 605.33,622.37 C598.03,633.01 595.41,651.09 599.44,663.00 C601.76,669.85 603.29,672.36 608.43,677.84 C619.60,689.73 642.05,693.27 656.89,685.47 C660.68,683.48 662.70,682.48 663.78,680.85 C665.00,679.00 665.00,676.34 665.00,670.48 C665.00,670.21 665.00,669.93 665.00,669.64 L 665.00 659.00 L 635.00 659.00 L 635.00 639.00 L 686.00 639.00 L 686.00 689.81 L 680.91 694.39 C673.88,700.71 665.76,705.41 657.51,707.94 ZM 296.04 708.40 C289.41,710.36 273.52,711.22 266.00,710.01 C258.02,708.72 246.70,704.66 241.12,701.08 C234.20,696.63 225.72,687.36 222.20,680.39 C216.76,669.61 215.56,663.90 215.63,649.00 C215.69,637.23 216.03,634.48 218.32,627.50 C225.76,604.85 241.95,590.46 264.39,586.55 C269.27,585.70 275.41,585.00 278.04,585.00 C285.71,585.00 297.81,587.72 304.90,591.04 C311.92,594.32 322.32,601.64 321.81,602.93 C321.64,603.36 318.69,606.76 315.25,610.49 L 309.01 617.28 L 305.25 614.69 C303.19,613.26 298.80,610.84 295.50,609.30 C290.02,606.74 288.50,606.50 278.00,606.50 C267.04,606.50 266.19,606.65 259.81,609.77 C251.10,614.03 244.31,621.54 240.41,631.22 C237.85,637.59 237.54,639.55 237.54,649.52 C237.54,660.41 237.63,660.87 241.30,668.29 C247.32,680.46 256.33,686.80 270.83,689.04 C282.18,690.80 294.04,688.25 301.70,682.42 L 305.00 679.90 L 305.00 659.00 L 275.00 659.00 L 275.00 639.00 L 326.00 639.00 L 325.97 663.75 L 325.95 688.50 L 323.22 691.60 C316.80,698.91 306.45,705.31 296.04,708.40 ZM 1094.90 704.70 C1087.61,707.35 1087.06,707.39 1057.50,707.78 C1041.00,708.00 1027.16,707.84 1026.75,707.42 C1026.34,707.01 1026.00,688.29 1026.00,665.83 L 1026.00 625.00 L 1049.00 625.00 L 1049.00 686.19 L 1066.75 685.84 C1083.44,685.50 1084.84,685.32 1090.15,682.84 C1108.50,674.27 1115.92,650.08 1106.55,629.38 C1103.22,622.02 1097.99,616.73 1090.76,613.39 L 1084.50 610.50 L 1026.50 609.50 L 1026.21 599.25 L 1025.93 589.00 L 1055.21 589.01 C1088.22,589.03 1092.72,589.64 1104.15,595.65 C1130.44,609.46 1140.78,647.42 1126.32,677.00 C1119.92,690.09 1109.25,699.50 1094.90,704.70 ZM 901.62 661.52 L 881.36 707.50 L 869.06 707.78 C859.37,708.00 856.88,707.79 857.30,706.78 C858.25,704.50 884.10,646.67 886.70,641.00 C888.08,637.97 893.71,625.38 899.19,613.00 C904.68,600.62 909.53,590.12 909.99,589.65 C910.44,589.18 916.32,588.79 923.05,588.79 L 935.29 588.79 L 936.50 591.65 C938.06,595.32 965.27,655.97 978.13,684.43 C983.59,696.52 987.65,706.75 987.18,707.22 C986.71,707.69 981.28,707.94 975.11,707.78 L 963.88 707.50 L 959.00 696.50 L 954.11 685.50 L 931.13 685.23 L 908.15 684.96 L 912.39 675.23 L 916.63 665.50 L 930.57 665.00 C939.07,664.69 944.42,664.11 944.29,663.50 C943.60,660.24 923.36,615.06 922.68,615.28 C922.24,615.42 912.76,636.23 901.62,661.52 ZM 1262.00 686.03 L 1262.00 708.00 L 1173.00 708.00 L 1173.00 638.00 L 1260.07 638.00 L 1259.79 648.25 L 1259.50 658.50 L 1227.22 658.76 L 1194.94 659.03 L 1195.22 672.26 L 1195.50 685.50 L 1262.00 686.03 ZM 104.00 589.00 L 104.00 708.00 L 82.00 708.00 L 82.00 660.04 L 60.25 659.77 L 38.50 659.50 L 37.93 639.04 L 81.50 638.50 L 82.03 589.00 ZM 473.00 589.00 L 473.00 708.00 L 451.00 708.00 L 451.00 660.00 L 408.00 660.00 L 408.00 639.04 L 450.50 638.50 L 450.77 613.75 L 451.03 589.00 ZM 0.00 708.00 L 0.00 589.00 L 23.00 589.00 L 23.00 708.00 L 0.00 708.00 ZM 392.00 589.00 L 392.00 708.00 L 370.00 708.00 L 370.00 589.00 ZM 172.76 648.25 L 172.50 707.50 L 161.75 707.78 L 151.00 708.07 L 151.00 589.00 L 173.02 589.00 ZM 301.20 806.20 C297.90,808.25 296.01,808.54 283.75,808.85 L 270.00 809.19 L 270.00 751.77 L 283.25 752.19 C298.47,752.68 302.71,754.18 307.00,760.61 C309.41,764.22 309.50,764.95 309.50,780.43 C309.50,795.46 309.35,796.74 307.20,800.20 C305.93,802.23 303.23,804.93 301.20,806.20 ZM 882.32 807.55 C879.96,808.39 874.02,808.93 866.75,808.96 L 855.00 809.00 L 855.00 751.76 L 867.75 752.16 C883.28,752.65 888.03,754.59 891.75,761.96 C893.77,765.97 894.00,767.88 894.00,780.75 C894.00,792.84 893.70,795.66 892.11,798.79 C889.69,803.53 887.10,805.85 882.32,807.55 ZM 541.00 74.81 L 551.50 87.03 L 553.36 84.77 C554.38,83.52 563.15,73.32 572.86,62.11 C582.56,50.90 591.09,40.88 591.81,39.86 C593.07,38.06 591.88,38.00 551.56,38.00 C528.70,38.00 510.00,38.24 510.00,38.54 C510.00,38.84 514.61,44.37 520.25,50.84 C525.89,57.30 535.22,68.09 541.00,74.81 ZM 700.35 73.79 C706.34,80.55 711.62,85.95 712.08,85.79 C712.54,85.63 722.14,74.93 733.42,62.00 L 753.94 38.50 L 712.31 38.24 C689.42,38.10 670.48,38.19 670.22,38.45 C669.76,38.90 678.54,49.21 700.35,73.79 ZM 679.63 807.32 C669.19,812.71 657.14,809.01 651.90,798.79 C649.29,793.69 649.09,767.71 651.62,762.70 C655.31,755.41 661.01,752.00 669.49,752.00 C679.09,752.00 685.43,756.31 688.46,764.89 C690.25,769.95 690.58,789.36 688.98,795.12 C687.49,800.50 683.98,805.08 679.63,807.32 ZM 1262.00 589.00 L 1262.00 610.00 L 1173.00 610.00 L 1173.00 589.00 L 1262.00 589.00 ZM 548.00 790.80 L 548.00 809.00 L 540.00 809.00 L 540.00 752.00 L 547.64 752.00 L 555.48 769.75 C559.79,779.51 563.61,787.84 563.96,788.25 C564.32,788.67 568.23,780.79 572.67,770.75 L 580.73 752.50 L 589.00 751.89 L 589.00 809.00 L 581.00 809.00 L 581.00 790.50 C581.00,780.33 580.66,772.02 580.25,772.04 C579.84,772.06 576.79,778.47 573.48,786.29 C567.75,799.81 567.31,800.51 564.44,800.80 C561.46,801.09 561.33,800.91 555.60,787.80 C552.40,780.48 549.38,774.07 548.89,773.55 C548.37,772.99 548.00,780.11 548.00,790.80 ZM 758.00 789.00 L 758.00 809.00 L 750.00 809.00 L 750.00 752.00 L 753.75 752.01 L 757.50 752.02 L 770.50 772.64 L 783.50 793.27 L 783.77 772.63 L 784.04 752.00 L 792.00 752.00 L 792.00 809.00 L 788.51 809.00 C784.69,809.00 784.60,808.87 765.95,779.26 C762.40,773.63 759.16,769.02 758.75,769.01 C758.34,769.00 758.00,778.00 758.00,789.00 ZM 445.34 802.75 C443.33,808.39 443.22,808.51 439.15,808.81 C436.73,808.99 435.00,808.68 435.00,808.07 C435.00,807.49 436.10,804.20 437.44,800.76 C438.78,797.32 443.39,785.05 447.69,773.50 L 455.50 752.50 L 462.25 752.50 L 467.56 766.50 C475.76,788.13 483.00,807.78 483.00,808.42 C483.00,808.74 481.05,809.00 478.66,809.00 L 474.32 809.00 L 470.68 797.00 L 447.39 797.00 ZM 980.29 808.42 C972.19,811.18 961.89,810.00 954.17,805.44 C950.50,803.28 950.34,802.37 953.02,799.15 L 954.98 796.81 L 960.18 799.40 C972.71,805.65 987.45,799.88 983.14,790.42 C981.83,787.54 977.70,785.63 969.60,784.13 C957.82,781.96 953.00,777.25 953.00,767.90 C953.00,761.94 956.09,757.23 962.01,754.19 C965.77,752.25 967.71,751.93 974.00,752.21 C981.41,752.54 988.97,755.12 989.73,757.60 C989.91,758.20 989.21,759.75 988.17,761.03 L 986.28 763.37 L 981.21 761.18 C975.31,758.65 971.29,758.44 966.55,760.42 C960.78,762.83 959.16,768.93 963.28,772.79 C964.53,773.96 968.46,775.63 972.03,776.48 C984.38,779.45 985.87,780.05 988.39,783.05 C995.55,791.56 991.38,804.64 980.29,808.42 ZM 278.75 801.44 C279.16,801.86 282.79,802.00 286.82,801.75 C294.66,801.26 298.42,799.41 300.74,794.90 C302.60,791.27 302.42,769.71 300.48,765.97 C298.22,761.59 294.24,760.00 285.55,760.00 L 278.00 760.00 L 278.00 780.33 C278.00,791.52 278.34,801.01 278.75,801.44 ZM 863.00 759.79 L 863.00 802.26 L 870.57 801.78 C875.99,801.43 878.89,800.73 880.82,799.30 C885.53,795.80 886.07,793.60 885.78,779.27 C885.51,766.31 885.44,765.98 882.73,763.27 C880.21,760.76 879.17,760.47 871.48,760.15 ZM 664.32 800.44 C669.13,802.89 674.88,801.88 678.13,798.00 C681.15,794.40 681.98,790.54 681.98,780.00 C681.99,765.53 678.70,760.00 670.06,760.00 C665.92,760.00 664.46,760.51 661.77,762.92 L 658.50 765.83 L 658.17 778.85 C657.80,793.74 658.92,797.69 664.32,800.44 ZM 378.00 752.00 L 378.00 809.00 L 370.00 809.00 L 370.00 752.00 ZM 450.99 787.75 C451.00,788.64 453.27,789.00 459.00,789.00 C463.68,789.00 467.00,788.58 467.00,788.00 C467.00,786.09 459.64,765.00 458.98,765.00 C458.25,765.00 450.97,785.73 450.99,787.75 Z" fill="rgb(6,8,9)"/>
<path d="M 0.00 769.50 L 0.00 708.00 L 11.50 708.00 L 23.00 708.00 L 23.00 648.50 L 23.00 589.00 L 11.50 589.00 L 0.00 589.00 L 0.00 294.50 L 0.00 0.00 L 200.50 0.00 C310.77,0.00 401.00,0.23 401.00,0.51 C401.00,1.08 397.99,4.65 312.08,106.25 C294.98,126.46 281.00,143.22 281.00,143.50 C281.00,144.33 362.85,144.06 363.36,143.22 C363.62,142.80 360.52,138.41 356.45,133.47 C352.39,128.54 349.05,124.15 349.03,123.72 C349.01,123.29 357.83,112.49 368.63,99.72 C379.43,86.95 393.94,69.75 400.88,61.51 C407.82,53.27 415.30,44.62 417.50,42.31 L 421.50 38.09 L 439.46 38.80 L 457.42 39.50 L 468.96 52.56 C475.31,59.75 490.51,76.94 502.75,90.77 C514.99,104.60 525.00,116.19 525.00,116.52 C525.00,116.84 519.83,122.82 513.51,129.80 C507.18,136.79 502.01,142.84 502.01,143.25 C502.00,144.29 598.76,144.20 599.40,143.16 C599.68,142.71 595.05,136.53 589.10,129.44 L 578.29 116.54 L 588.43 104.52 C594.01,97.91 605.70,84.05 614.42,73.71 C623.14,63.38 630.59,55.05 630.99,55.21 C631.38,55.37 639.26,64.05 648.49,74.50 C657.73,84.95 668.52,97.10 672.47,101.50 C676.42,105.90 681.13,111.19 682.93,113.24 L 686.20 116.99 L 675.10 129.97 C668.99,137.11 664.00,143.19 664.00,143.48 C664.00,144.31 758.83,144.08 759.35,143.25 C759.60,142.84 758.70,141.15 757.35,139.50 C749.65,130.14 738.94,115.68 739.20,115.01 C739.37,114.57 754.95,96.85 773.84,75.61 L 808.18 37.00 L 823.47 37.00 L 838.76 37.00 L 842.63 41.75 C844.76,44.36 849.87,50.36 854.00,55.08 C858.12,59.80 867.58,70.80 875.00,79.53 C882.42,88.25 894.23,102.10 901.23,110.31 L 913.97 125.22 L 905.98 133.76 C901.59,138.45 898.00,142.68 898.00,143.15 C898.00,144.21 978.70,144.29 979.36,143.23 C979.62,142.80 976.90,139.09 973.31,134.98 C961.20,121.12 916.59,69.75 906.00,57.49 C894.10,43.71 866.39,11.90 860.04,4.75 L 855.83 -0.00 L 1058.92 -0.00 L 1262.00 0.00 L 1262.00 294.50 L 1262.00 589.00 L 1217.50 589.00 L 1173.00 589.00 L 1173.00 599.50 L 1173.00 610.00 L 1217.50 610.00 L 1262.00 610.00 L 1262.00 648.01 L 1262.00 686.03 L 1228.75 685.76 L 1195.50 685.50 L 1195.22 672.26 L 1194.94 659.03 L 1227.22 658.76 L 1259.50 658.50 L 1259.79 648.25 L 1260.07 638.00 L 1216.54 638.00 L 1173.00 638.00 L 1173.00 673.00 L 1173.00 708.00 L 1217.50 708.00 L 1262.00 708.00 L 1262.00 769.50 L 1262.00 831.00 L 631.00 831.00 L 0.00 831.00 L 0.00 769.50 ZM 679.63 807.32 C683.98,805.08 687.49,800.50 688.98,795.12 C690.58,789.36 690.25,769.95 688.46,764.89 C685.43,756.31 679.09,752.00 669.49,752.00 C661.01,752.00 655.31,755.41 651.62,762.70 C649.09,767.71 649.29,793.69 651.90,798.79 C657.14,809.01 669.19,812.71 679.63,807.32 ZM 980.29 808.42 C991.38,804.64 995.55,791.56 988.39,783.05 C985.87,780.05 984.38,779.45 972.03,776.48 C968.46,775.63 964.53,773.96 963.28,772.79 C959.16,768.93 960.78,762.83 966.55,760.42 C971.29,758.44 975.31,758.65 981.21,761.18 L 986.28 763.37 L 988.17 761.03 C989.21,759.75 989.91,758.20 989.73,757.60 C988.97,755.12 981.41,752.54 974.00,752.21 C967.71,751.93 965.77,752.25 962.01,754.19 C956.09,757.23 953.00,761.94 953.00,767.90 C953.00,777.25 957.82,781.96 969.60,784.13 C977.70,785.63 981.83,787.54 983.14,790.42 C987.45,799.88 972.71,805.65 960.18,799.40 L 954.98 796.81 L 953.02 799.15 C950.34,802.37 950.50,803.28 954.17,805.44 C961.89,810.00 972.19,811.18 980.29,808.42 ZM 301.20 806.20 C303.23,804.93 305.93,802.23 307.20,800.20 C309.35,796.74 309.50,795.46 309.50,780.43 C309.50,764.95 309.41,764.22 307.00,760.61 C302.71,754.18 298.47,752.68 283.25,752.19 L 270.00 751.77 L 270.00 780.48 L 270.00 809.19 L 283.75 808.85 C296.01,808.54 297.90,808.25 301.20,806.20 ZM 378.00 780.50 L 378.00 752.00 L 374.00 752.00 L 370.00 752.00 L 370.00 780.50 L 370.00 809.00 L 374.00 809.00 L 378.00 809.00 L 378.00 780.50 ZM 445.34 802.75 L 447.39 797.00 L 459.04 797.00 L 470.68 797.00 L 472.50 803.00 L 474.32 809.00 L 478.66 809.00 C481.05,809.00 483.00,808.74 483.00,808.42 C483.00,807.78 475.76,788.13 467.56,766.50 L 462.25 752.50 L 458.88 752.50 L 455.50 752.50 L 447.69 773.50 C443.39,785.05 438.78,797.32 437.44,800.76 C436.10,804.20 435.00,807.49 435.00,808.07 C435.00,808.68 436.73,808.99 439.15,808.81 C443.22,808.51 443.33,808.39 445.34,802.75 ZM 548.00 790.80 C548.00,780.11 548.37,772.99 548.89,773.55 C549.38,774.07 552.40,780.48 555.60,787.80 C561.33,800.91 561.46,801.09 564.44,800.80 C567.31,800.51 567.75,799.81 573.48,786.29 C576.79,778.47 579.84,772.06 580.25,772.04 C580.66,772.02 581.00,780.33 581.00,790.50 L 581.00 809.00 L 585.00 809.00 L 589.00 809.00 L 589.00 780.44 L 589.00 751.89 L 584.86 752.19 L 580.73 752.50 L 572.67 770.75 C568.23,780.79 564.32,788.67 563.96,788.25 C563.61,787.84 559.79,779.51 555.48,769.75 L 547.64 752.00 L 543.82 752.00 L 540.00 752.00 L 540.00 780.50 L 540.00 809.00 L 544.00 809.00 L 548.00 809.00 L 548.00 790.80 ZM 758.00 789.00 C758.00,778.00 758.34,769.00 758.75,769.01 C759.16,769.02 762.40,773.63 765.95,779.26 C784.60,808.87 784.69,809.00 788.51,809.00 L 792.00 809.00 L 792.00 780.50 L 792.00 752.00 L 788.02 752.00 L 784.04 752.00 L 783.77 772.63 L 783.50 793.27 L 770.50 772.64 L 757.50 752.02 L 753.75 752.01 L 750.00 752.00 L 750.00 780.50 L 750.00 809.00 L 754.00 809.00 L 758.00 809.00 L 758.00 789.00 ZM 882.32 807.55 C887.10,805.85 889.69,803.53 892.11,798.79 C893.70,795.66 894.00,792.84 894.00,780.75 C894.00,767.88 893.77,765.97 891.75,761.96 C888.03,754.59 883.28,752.65 867.75,752.16 L 855.00 751.76 L 855.00 780.38 L 855.00 809.00 L 866.75 808.96 C874.02,808.93 879.96,808.39 882.32,807.55 ZM 296.04 708.40 C306.45,705.31 316.80,698.91 323.22,691.60 L 325.95 688.50 L 325.97 663.75 L 326.00 639.00 L 300.50 639.00 L 275.00 639.00 L 275.00 649.00 L 275.00 659.00 L 290.00 659.00 L 305.00 659.00 L 305.00 669.45 L 305.00 679.90 L 301.70 682.42 C294.04,688.25 282.18,690.80 270.83,689.04 C256.33,686.80 247.32,680.46 241.30,668.29 C237.63,660.87 237.54,660.41 237.54,649.52 C237.54,639.55 237.85,637.59 240.41,631.22 C244.31,621.54 251.10,614.03 259.81,609.77 C266.19,606.65 267.04,606.50 278.00,606.50 C288.50,606.50 290.02,606.74 295.50,609.30 C298.80,610.84 303.19,613.26 305.25,614.69 L 309.01 617.28 L 315.25 610.49 C318.69,606.76 321.64,603.36 321.81,602.93 C322.32,601.64 311.92,594.32 304.90,591.04 C297.81,587.72 285.71,585.00 278.04,585.00 C275.41,585.00 269.27,585.70 264.39,586.55 C241.95,590.46 225.76,604.85 218.32,627.50 C216.03,634.48 215.69,637.23 215.63,649.00 C215.56,663.90 216.76,669.61 222.20,680.39 C225.72,687.36 234.20,696.63 241.12,701.08 C246.70,704.66 258.02,708.72 266.00,710.01 C273.52,711.22 289.41,710.36 296.04,708.40 ZM 657.51 707.94 C665.76,705.41 673.88,700.71 680.91,694.39 L 686.00 689.81 L 686.00 664.41 L 686.00 639.00 L 660.50 639.00 L 635.00 639.00 L 635.00 649.00 L 635.00 659.00 L 650.00 659.00 L 665.00 659.00 L 665.00 669.64 C665.00,681.50 665.21,681.10 656.89,685.47 C642.05,693.27 619.60,689.73 608.43,677.84 C603.29,672.36 601.76,669.85 599.44,663.00 C595.41,651.09 598.03,633.01 605.33,622.37 C617.47,604.66 644.37,600.60 663.92,613.53 L 669.34 617.11 L 676.23 610.30 L 683.13 603.50 L 678.39 599.29 C657.26,580.54 617.78,580.73 596.09,599.70 C570.40,622.17 568.28,669.62 591.91,693.03 C601.40,702.42 612.93,708.03 627.00,710.07 C635.59,711.32 649.69,710.34 657.51,707.94 ZM 104.00 648.50 L 104.00 589.00 L 93.02 589.00 L 82.03 589.00 L 81.77 613.75 L 81.50 638.50 L 59.72 638.77 L 37.93 639.04 L 38.22 649.27 L 38.50 659.50 L 60.25 659.77 L 82.00 660.04 L 82.00 684.02 L 82.00 708.00 L 93.00 708.00 L 104.00 708.00 L 104.00 648.50 ZM 172.76 648.25 L 173.02 589.00 L 162.01 589.00 L 151.00 589.00 L 151.00 648.53 L 151.00 708.07 L 161.75 707.78 L 172.50 707.50 L 172.76 648.25 ZM 392.00 648.50 L 392.00 589.00 L 381.00 589.00 L 370.00 589.00 L 370.00 648.50 L 370.00 708.00 L 381.00 708.00 L 392.00 708.00 L 392.00 648.50 ZM 473.00 648.50 L 473.00 589.00 L 462.02 589.00 L 451.03 589.00 L 450.77 613.75 L 450.50 638.50 L 429.25 638.77 L 408.00 639.04 L 408.00 649.52 L 408.00 660.00 L 429.50 660.00 L 451.00 660.00 L 451.00 684.00 L 451.00 708.00 L 462.00 708.00 L 473.00 708.00 L 473.00 648.50 ZM 750.76 658.50 L 751.02 609.50 L 770.26 609.77 C793.39,610.11 795.06,610.34 799.11,613.75 C809.45,622.45 807.54,639.42 795.50,645.77 C793.23,646.97 788.12,647.49 774.44,647.93 L 756.38 648.50 L 776.23 671.50 C787.15,684.15 798.80,697.54 802.11,701.25 L 808.13 708.00 L 821.14 708.00 C831.70,708.00 834.09,707.74 833.82,706.62 C833.65,705.86 825.85,696.58 816.50,686.00 C807.15,675.42 799.38,666.47 799.24,666.10 C799.09,665.73 800.92,664.90 803.29,664.27 C813.07,661.65 821.96,653.05 826.01,642.28 C827.85,637.39 828.12,634.97 827.79,626.50 C827.46,618.15 826.94,615.56 824.64,610.78 C821.34,603.93 814.84,596.98 808.86,593.93 C800.21,589.50 796.01,589.01 761.25,588.33 L 728.00 587.68 L 728.00 647.17 C728.00,679.89 728.31,706.98 728.70,707.37 C729.08,707.75 734.15,707.94 739.95,707.78 L 750.50 707.50 L 750.76 658.50 ZM 901.62 661.52 C912.76,636.23 922.24,615.42 922.68,615.28 C923.36,615.06 943.60,660.24 944.29,663.50 C944.42,664.11 939.07,664.69 930.57,665.00 L 916.63 665.50 L 912.39 675.23 L 908.15 684.96 L 931.13 685.23 L 954.11 685.50 L 959.00 696.50 L 963.88 707.50 L 975.11 707.78 C981.28,707.94 986.71,707.69 987.18,707.22 C987.65,706.75 983.59,696.52 978.13,684.43 C965.27,655.97 938.06,595.32 936.50,591.65 L 935.29 588.79 L 923.05 588.79 C916.32,588.79 910.44,589.18 909.99,589.65 C909.53,590.12 904.68,600.62 899.19,613.00 C893.71,625.38 888.08,637.97 886.70,641.00 C884.10,646.67 858.25,704.50 857.30,706.78 C856.88,707.79 859.37,708.00 869.06,707.78 L 881.36 707.50 L 901.62 661.52 ZM 1094.90 704.70 C1109.25,699.50 1119.92,690.09 1126.32,677.00 C1140.78,647.42 1130.44,609.46 1104.15,595.65 C1092.72,589.64 1088.22,589.03 1055.21,589.01 L 1025.93 589.00 L 1026.21 599.25 L 1026.50 609.50 L 1055.50 610.00 L 1084.50 610.50 L 1090.76 613.39 C1097.99,616.73 1103.22,622.02 1106.55,629.38 C1115.92,650.08 1108.50,674.27 1090.15,682.84 C1084.84,685.32 1083.44,685.50 1066.75,685.84 L 1049.00 686.19 L 1049.00 655.60 L 1049.00 625.00 L 1037.50 625.00 L 1026.00 625.00 L 1026.00 665.83 C1026.00,688.29 1026.34,707.01 1026.75,707.42 C1027.16,707.84 1041.00,708.00 1057.50,707.78 C1087.06,707.39 1087.61,707.35 1094.90,704.70 ZM 615.00 334.00 L 615.00 162.00 L 583.50 162.00 L 552.00 162.00 L 552.00 194.50 L 552.00 227.00 L 522.50 227.00 L 493.00 227.00 L 493.00 211.16 C493.00,202.45 492.70,187.82 492.34,178.66 L 491.69 162.00 L 381.09 162.00 L 270.50 162.00 L 382.00 273.50 C443.32,334.83 493.83,385.00 494.25,385.00 C494.66,385.00 495.00,360.02 495.00,329.48 L 495.00 273.97 L 522.25 274.23 L 549.50 274.50 L 549.76 358.00 L 550.01 441.50 L 582.25 473.75 C599.98,491.49 614.60,506.00 614.74,506.00 C614.88,506.00 615.00,428.60 615.00,334.00 ZM 775.06 375.00 L 906.29 244.50 L 864.90 243.89 C842.13,243.55 805.84,243.22 784.25,243.14 L 745.00 243.00 L 745.00 258.48 L 745.00 273.97 L 769.96 274.23 L 794.92 274.50 L 752.86 318.31 C729.72,342.41 710.60,361.93 710.36,361.69 C710.12,361.45 710.24,325.65 710.62,282.13 L 711.32 203.00 L 829.42 203.00 L 947.52 203.00 L 968.00 182.50 L 988.48 162.00 L 815.24 162.00 L 642.00 162.00 L 642.00 334.08 C642.00,437.69 642.36,506.03 642.91,505.83 C643.42,505.65 702.88,446.77 775.06,375.00 ZM 541.00 74.81 C535.22,68.09 525.89,57.30 520.25,50.84 C514.61,44.37 510.00,38.84 510.00,38.54 C510.00,38.24 528.70,38.00 551.56,38.00 C591.88,38.00 593.07,38.06 591.81,39.86 C591.09,40.88 582.56,50.90 572.86,62.11 C563.15,73.32 554.38,83.52 553.36,84.77 L 551.50 87.03 L 541.00 74.81 ZM 700.35 73.79 C678.54,49.21 669.76,38.90 670.22,38.45 C670.48,38.19 689.42,38.10 712.31,38.24 L 753.94 38.50 L 733.42 62.00 C722.14,74.93 712.54,85.63 712.08,85.79 C711.62,85.95 706.34,80.55 700.35,73.79 ZM 664.32 800.44 C658.92,797.69 657.80,793.74 658.17,778.85 L 658.50 765.83 L 661.77 762.92 C664.46,760.51 665.92,760.00 670.06,760.00 C678.70,760.00 681.99,765.53 681.98,780.00 C681.98,790.54 681.15,794.40 678.13,798.00 C674.88,801.88 669.13,802.89 664.32,800.44 ZM 278.75 801.44 C278.34,801.01 278.00,791.52 278.00,780.33 L 278.00 760.00 L 285.55 760.00 C294.24,760.00 298.22,761.59 300.48,765.97 C302.42,769.71 302.60,791.27 300.74,794.90 C298.42,799.41 294.66,801.26 286.82,801.75 C282.79,802.00 279.16,801.86 278.75,801.44 ZM 450.99 787.75 C450.97,785.73 458.25,765.00 458.98,765.00 C459.64,765.00 467.00,786.09 467.00,788.00 C467.00,788.58 463.68,789.00 459.00,789.00 C453.27,789.00 451.00,788.64 450.99,787.75 ZM 863.00 781.03 L 863.00 759.79 L 871.48 760.15 C879.17,760.47 880.21,760.76 882.73,763.27 C885.44,765.98 885.51,766.31 885.78,779.27 C886.07,793.60 885.53,795.80 880.82,799.30 C878.89,800.73 875.99,801.43 870.57,801.78 L 863.00 802.26 L 863.00 781.03 Z" fill="rgb(246,246,246)"/>
</g>
</svg>